<?xml version="1.0" encoding="utf-8"?>
<!-- Generator: Adobe Illustrator 16.0.0, SVG Export Plug-In . SVG Version: 6.00 Build 0)  -->
<!DOCTYPE svg PUBLIC "-//W3C//DTD SVG 1.0//EN" "http://www.w3.org/TR/2001/REC-SVG-20010904/DTD/svg10.dtd">
<svg version="1.0" id="Layer_1" xmlns="http://www.w3.org/2000/svg" xmlns:xlink="http://www.w3.org/1999/xlink" x="0px" y="0px"
	 width="130.106px" height="42.373px" viewBox="0 0 130.106 42.373" enable-background="new 0 0 130.106 42.373"
	 xml:space="preserve">
<g>
	<path fill="#FFFFFF" d="M9.88,9.372c-2.312,0-4.224-1.81-4.224-4.072c0-2.212,1.911-4.022,4.224-4.022
		c2.263,0,4.124,1.81,4.124,4.022C14.004,7.562,12.143,9.372,9.88,9.372z M6.11,12.338h7.541v27.603H6.11V12.338z"/>
	<path fill="#FFFFFF" d="M26.061,1.931v22.122l9.402-11.614h9.201L33.553,25.311l11.563,14.63h-9.1l-7.239-9.05l-2.717,3.117v5.933
		H18.52V1.931H26.061z"/>
	<path fill="#FFFFFF" d="M67.13,37.175c-1.155,1.56-4.474,3.37-8.396,3.37c-8.747,0-13.876-6.486-13.876-14.431
		c0-7.944,5.129-14.43,13.876-14.43c4.022,0,6.989,1.609,8.396,3.469v-2.866h7.44v27.652h-7.44V37.175z M59.84,18.271
		c-4.775,0-7.592,3.318-7.592,7.843c0,4.374,2.967,7.792,7.592,7.792c4.676,0,7.592-2.965,7.592-7.792
		C67.432,21.54,64.516,18.271,59.84,18.271z"/>
	<path fill="#FFFFFF" d="M86.782,27.723v12.218H79.29V12.289h7.492v3.67c2.815-3.721,7.491-4.224,9.452-4.174v7.341
		C94.424,18.976,86.782,19.327,86.782,27.723z"/>
	<circle fill="#EA1E8C" cx="112.729" cy="26.362" r="15.08"/>
</g>
</svg>
